<svg width="234" height="34" viewBox="0 0 234 34" fill="none" xmlns="http://www.w3.org/2000/svg">
<path d="M148.304 11.4943H154.996C154.144 5.3346 148.715 1 141.673 1C133.445 1 127.103 6.93156 127.103 17.0304C127.103 26.8859 133.034 33 141.81 33C149.673 33 155.285 28.0266 155.285 19.8289V15.9049H142.251V20.8631H148.943C148.852 24.7262 146.22 27.1749 141.84 27.1749C136.897 27.1749 133.779 23.4791 133.779 16.9696C133.779 10.4905 137.019 6.8251 141.779 6.8251C145.171 6.8251 147.468 8.57414 148.304 11.4943Z" fill="#A2FF0A"/>
<path d="M160.232 32.5741H181.281V27.1445H166.817V19.7072H180.141V14.2776H166.817V6.85551H181.22V1.42586H160.232V32.5741Z" fill="#A2FF0A"/>
<path d="M186.456 1.42586V32.5741H192.844V12.2243H193.103L201.163 32.4221H205.513L213.574 12.3004H213.833V32.5741H220.22V1.42586H212.099L203.521 22.3536H203.156L194.578 1.42586H186.456Z" fill="#A2FF0A"/>
<path d="M233.266 1.42586H226.498L227.106 23.2357H232.673L233.266 1.42586ZM229.89 32.9696C231.836 32.9696 233.525 31.3422 233.54 29.3194C233.525 27.327 231.836 25.6996 229.89 25.6996C227.882 25.6996 226.224 27.327 226.239 29.3194C226.224 31.3422 227.882 32.9696 229.89 32.9696Z" fill="#A2FF0A"/>
<path d="M148.304 11.4943H154.996C154.144 5.3346 148.715 1 141.673 1C133.445 1 127.103 6.93156 127.103 17.0304C127.103 26.8859 133.034 33 141.81 33C149.673 33 155.285 28.0266 155.285 19.8289V15.9049H142.251V20.8631H148.943C148.852 24.7262 146.22 27.1749 141.84 27.1749C136.897 27.1749 133.779 23.4791 133.779 16.9696C133.779 10.4905 137.019 6.8251 141.779 6.8251C145.171 6.8251 147.468 8.57414 148.304 11.4943Z" stroke="#A2FF0A" stroke-width="0.5"/>
<path d="M160.232 32.5741H181.281V27.1445H166.817V19.7072H180.141V14.2776H166.817V6.85551H181.22V1.42586H160.232V32.5741Z" stroke="#A2FF0A" stroke-width="0.5"/>
<path d="M186.456 1.42586V32.5741H192.844V12.2243H193.103L201.163 32.4221H205.513L213.574 12.3004H213.833V32.5741H220.22V1.42586H212.099L203.521 22.3536H203.156L194.578 1.42586H186.456Z" stroke="#A2FF0A" stroke-width="0.5"/>
<path d="M233.266 1.42586H226.498L227.106 23.2357H232.673L233.266 1.42586ZM229.89 32.9696C231.836 32.9696 233.525 31.3422 233.54 29.3194C233.525 27.327 231.836 25.6996 229.89 25.6996C227.882 25.6996 226.224 27.327 226.239 29.3194C226.224 31.3422 227.882 32.9696 229.89 32.9696Z" stroke="#A2FF0A" stroke-width="0.5"/>
<path d="M65.3079 32.5742H71.8935L73.7338 21.5323H78.5247L82.6007 32.5742H89.8707L85.2623 20.4677C89.0646 18.9468 91.5437 15.8593 92.2433 11.6008C93.2623 5.41066 89.8402 1.42587 82.768 1.42587H70.479L65.3079 32.5742ZM74.6159 16.2396L76.1977 6.8099H80.6387C84.4106 6.8099 85.9619 8.48291 85.46 11.6008C84.9581 14.6882 82.8745 16.2396 79.0874 16.2396H74.6159Z" fill="#3CBB00"/>
<path d="M99.0342 32.5742L102.532 25.4715H113.772L114.897 32.5742H121.954L116.388 1.42587H107.901L91.9771 32.5742H99.0342ZM105.057 20.3308L110.867 8.54374H111.11L112.966 20.3308H105.057Z" fill="#3CBB00"/>
<path d="M65.3079 32.5742H71.8935L73.7338 21.5323H78.5247L82.6007 32.5742H89.8707L85.2623 20.4677C89.0646 18.9468 91.5437 15.8593 92.2433 11.6008C93.2623 5.41066 89.8402 1.42587 82.768 1.42587H70.479L65.3079 32.5742ZM74.6159 16.2396L76.1977 6.8099H80.6387C84.4106 6.8099 85.9619 8.48291 85.46 11.6008C84.9581 14.6882 82.8745 16.2396 79.0874 16.2396H74.6159Z" stroke="#3CBB00"/>
<path d="M99.0342 32.5742L102.532 25.4715H113.772L114.897 32.5742H121.954L116.388 1.42587H107.901L91.9771 32.5742H99.0342ZM105.057 20.3308L110.867 8.54374H111.11L112.966 20.3308H105.057Z" stroke="#3CBB00"/>
<path d="M29.0304 12.3308C28.1635 5.13688 22.7186 1 15.5095 1C7.28137 1 1 6.80989 1 17C1 27.1597 7.1749 33 15.5095 33C23.4943 33 28.3156 27.692 29.0304 21.9582L22.3688 21.9278C21.7452 25.2586 19.1293 27.1749 15.616 27.1749C10.8859 27.1749 7.67681 23.6616 7.67681 17C7.67681 10.5209 10.8403 6.8251 15.6616 6.8251C19.2662 6.8251 21.8669 8.90875 22.3688 12.3308H29.0304Z" stroke="#2E8C01"/>
<path d="M62.3764 17C62.3764 6.80989 56.0494 1 47.7909 1C39.4867 1 33.2053 6.80989 33.2053 17C33.2053 27.1445 39.4867 33 47.7909 33C56.0494 33 62.3764 27.1901 62.3764 17ZM55.6996 17C55.6996 23.6008 52.5665 27.1749 47.7909 27.1749C43 27.1749 39.8821 23.6008 39.8821 17C39.8821 10.3992 43 6.8251 47.7909 6.8251C52.5665 6.8251 55.6996 10.3992 55.6996 17Z" stroke="#2E8C01"/>
</svg>
